M48
; DRILL file {KiCad 9.0.7} date 2026-02-11T04:53:50+0530
; FORMAT={-:-/ absolute / metric / decimal}
; #@! TF.CreationDate,2026-02-11T04:53:50+05:30
; #@! TF.GenerationSoftware,Kicad,Pcbnew,9.0.7
; #@! TF.FileFunction,Plated,1,2,PTH
FMAT,2
METRIC
; #@! TA.AperFunction,Plated,PTH,ViaDrill
T1C0.300
; #@! TA.AperFunction,Plated,PTH,ComponentDrill
T2C0.500
; #@! TA.AperFunction,Plated,PTH,ComponentDrill
T3C0.600
; #@! TA.AperFunction,Plated,PTH,ComponentDrill
T4C0.700
; #@! TA.AperFunction,Plated,PTH,ComponentDrill
T5C0.920
; #@! TA.AperFunction,Plated,PTH,ComponentDrill
T6C1.000
; #@! TA.AperFunction,Plated,PTH,ComponentDrill
T7C3.200
%
G90
G05
T1
X104.31Y-115.43
X110.55Y-120.15
X114.32Y-126.81
X119.23Y-117.88
X119.53Y-124.35
X119.8Y-116.1
X124.64Y-117.92
X126.66Y-128.81
X134.99Y-108.01
X136.55Y-114.4
X137.09Y-130.49
T2
X100.22Y-130.13
X100.923Y-128.433
X100.923Y-131.827
X102.62Y-127.73
X102.62Y-132.53
X104.317Y-128.433
X104.317Y-131.827
X105.02Y-130.13
X143.16Y-109.38
X143.863Y-107.683
X143.863Y-111.077
X145.56Y-106.98
X145.56Y-111.78
X147.257Y-107.683
X147.257Y-111.077
X147.96Y-109.38
T5
X143.778Y-118.46
X143.778Y-120.96
X143.778Y-122.96
X143.778Y-125.46
T6
X115.162Y-111.15
X117.703Y-111.15
X120.242Y-111.15
X122.782Y-111.15
T7
X102.62Y-130.13
X145.56Y-109.38
T3
G00X144.477Y-115.56
M15
G01X145.477Y-115.56
M16
G05
G00X144.477Y-128.36
M15
G01X145.477Y-128.36
M16
G05
T4
G00X99.95Y-113.24
M15
G01X98.15Y-113.24
M16
G05
G00X99.95Y-124.94
M15
G01X98.15Y-124.94
M16
G05
M30
